<svg viewBox="0 0 24 24" fill="none" xmlns="http://www.w3.org/2000/svg">
  <path
    d="M8 10H16M8 14H13M7.8 20H16.2C17.8802 20 18.7202 20 19.362 19.673C19.9265 19.3854 20.3854 18.9265 20.673 18.362C21 17.7202 21 16.8802 21 15.2V8.8C21 7.11984 21 6.27976 20.673 5.63803C20.3854 5.07354 19.9265 4.6146 19.362 4.32698C18.7202 4 17.8802 4 16.2 4H7.8C6.11984 4 5.27976 4 4.63803 4.32698C4.07354 4.6146 3.6146 5.07354 3.32698 5.63803C3 6.27976 3 7.11984 3 8.8V21L5.4 19.2C5.88763 18.8343 6.13145 18.6514 6.39927 18.5213C6.63676 18.406 6.88831 18.3222 7.14799 18.2721C7.44087 18.2156 7.74566 18.2156 8.35525 18.2156"
    stroke="currentColor"
    stroke-width="2"
    stroke-linecap="round"
    stroke-linejoin="round"
  />
</svg>
